<mxfile host="app.diagrams.net" modified="2024-05-14T20:14:12.278Z" agent="Mozilla/5.0 (Windows NT 10.0; Win64; x64; rv:125.0) Gecko/20100101 Firefox/125.0" etag="II4me6gMs-87T0wa1IDC" version="24.4.0" type="github">
  <diagram id="C5RBs43oDa-KdzZeNtuy" name="Page-1">
    <mxGraphModel dx="1434" dy="726" grid="1" gridSize="10" guides="1" tooltips="1" connect="1" arrows="1" fold="1" page="1" pageScale="1" pageWidth="827" pageHeight="1169" math="0" shadow="0">
      <root>
        <mxCell id="WIyWlLk6GJQsqaUBKTNV-0" />
        <mxCell id="WIyWlLk6GJQsqaUBKTNV-1" parent="WIyWlLk6GJQsqaUBKTNV-0" />
        <mxCell id="7HGE-dyt3ShhVV6eNgTS-59" style="edgeStyle=orthogonalEdgeStyle;rounded=0;orthogonalLoop=1;jettySize=auto;html=1;exitX=1;exitY=0.5;exitDx=0;exitDy=0;entryX=0;entryY=0.5;entryDx=0;entryDy=0;" parent="WIyWlLk6GJQsqaUBKTNV-1" source="7HGE-dyt3ShhVV6eNgTS-4" target="7HGE-dyt3ShhVV6eNgTS-22" edge="1">
          <mxGeometry relative="1" as="geometry" />
        </mxCell>
        <mxCell id="7HGE-dyt3ShhVV6eNgTS-4" value="Retrieval System" style="swimlane;whiteSpace=wrap;html=1;fillColor=#e1d5e7;strokeColor=#9673a6;startSize=23;" parent="WIyWlLk6GJQsqaUBKTNV-1" vertex="1">
          <mxGeometry x="280" y="360" width="290" height="280" as="geometry" />
        </mxCell>
        <mxCell id="7HGE-dyt3ShhVV6eNgTS-7" value="&lt;div&gt;Indicies&lt;/div&gt;" style="strokeWidth=2;html=1;shape=mxgraph.flowchart.database;whiteSpace=wrap;fillColor=#ffe6cc;strokeColor=#d79b00;" parent="7HGE-dyt3ShhVV6eNgTS-4" vertex="1">
          <mxGeometry x="44" y="40" width="60" height="60" as="geometry" />
        </mxCell>
        <mxCell id="7HGE-dyt3ShhVV6eNgTS-32" value="Re-ranking" style="rounded=1;whiteSpace=wrap;html=1;fontSize=12;glass=0;strokeWidth=1;shadow=0;fillColor=#e1d5e7;strokeColor=#9673a6;" parent="7HGE-dyt3ShhVV6eNgTS-4" vertex="1">
          <mxGeometry x="14" y="130" width="120" height="40" as="geometry" />
        </mxCell>
        <mxCell id="7HGE-dyt3ShhVV6eNgTS-34" value="Hypothetical Questions and HyDE" style="rounded=1;whiteSpace=wrap;html=1;fontSize=12;glass=0;strokeWidth=1;shadow=0;fillColor=#e1d5e7;strokeColor=#9673a6;" parent="7HGE-dyt3ShhVV6eNgTS-4" vertex="1">
          <mxGeometry x="160" y="130" width="120" height="40" as="geometry" />
        </mxCell>
        <mxCell id="7HGE-dyt3ShhVV6eNgTS-37" value="Fine-tuning Embeddings" style="rounded=1;whiteSpace=wrap;html=1;fontSize=12;glass=0;strokeWidth=1;shadow=0;fillColor=#fff2cc;strokeColor=#d6b656;" parent="7HGE-dyt3ShhVV6eNgTS-4" vertex="1">
          <mxGeometry x="14" y="195" width="120" height="40" as="geometry" />
        </mxCell>
        <mxCell id="7HGE-dyt3ShhVV6eNgTS-33" value="Hyperparamter Tuning" style="rounded=1;whiteSpace=wrap;html=1;fontSize=12;glass=0;strokeWidth=1;shadow=0;fillColor=#fff2cc;strokeColor=#d6b656;" parent="7HGE-dyt3ShhVV6eNgTS-4" vertex="1">
          <mxGeometry x="160" y="50" width="120" height="40" as="geometry" />
        </mxCell>
        <mxCell id="7HGE-dyt3ShhVV6eNgTS-56" style="edgeStyle=orthogonalEdgeStyle;rounded=0;orthogonalLoop=1;jettySize=auto;html=1;exitX=0;exitY=1;exitDx=0;exitDy=0;entryX=0;entryY=0;entryDx=0;entryDy=0;" parent="WIyWlLk6GJQsqaUBKTNV-1" source="7HGE-dyt3ShhVV6eNgTS-14" target="7HGE-dyt3ShhVV6eNgTS-19" edge="1">
          <mxGeometry relative="1" as="geometry" />
        </mxCell>
        <mxCell id="7HGE-dyt3ShhVV6eNgTS-14" value="&lt;div&gt;Data Preparation and Management&lt;/div&gt;" style="swimlane;whiteSpace=wrap;html=1;fillColor=#ffe6cc;strokeColor=#d79b00;" parent="WIyWlLk6GJQsqaUBKTNV-1" vertex="1">
          <mxGeometry x="40" y="40" width="360" height="240" as="geometry">
            <mxRectangle x="410" y="40" width="240" height="30" as="alternateBounds" />
          </mxGeometry>
        </mxCell>
        <mxCell id="7HGE-dyt3ShhVV6eNgTS-23" value="Chunking &amp;amp; Vectorization" style="rounded=1;whiteSpace=wrap;html=1;fontSize=12;glass=0;strokeWidth=1;shadow=0;fillColor=#fff2cc;strokeColor=#d6b656;" parent="7HGE-dyt3ShhVV6eNgTS-14" vertex="1">
          <mxGeometry x="14" y="50" width="120" height="40" as="geometry" />
        </mxCell>
        <mxCell id="7HGE-dyt3ShhVV6eNgTS-24" value="Metadata and Summaries" style="rounded=1;whiteSpace=wrap;html=1;fontSize=12;glass=0;strokeWidth=1;shadow=0;fillColor=#e1d5e7;strokeColor=#9673a6;" parent="7HGE-dyt3ShhVV6eNgTS-14" vertex="1">
          <mxGeometry x="161" y="50" width="120" height="40" as="geometry" />
        </mxCell>
        <mxCell id="7HGE-dyt3ShhVV6eNgTS-25" value="User Profile Management" style="rounded=1;whiteSpace=wrap;html=1;fontSize=12;glass=0;strokeWidth=1;shadow=0;" parent="7HGE-dyt3ShhVV6eNgTS-14" vertex="1">
          <mxGeometry x="14" y="190" width="120" height="40" as="geometry" />
        </mxCell>
        <mxCell id="7HGE-dyt3ShhVV6eNgTS-26" value="Data Cleaning" style="rounded=1;whiteSpace=wrap;html=1;fontSize=12;glass=0;strokeWidth=1;shadow=0;fillColor=#fff2cc;strokeColor=#d6b656;" parent="7HGE-dyt3ShhVV6eNgTS-14" vertex="1">
          <mxGeometry x="14" y="120" width="120" height="40" as="geometry" />
        </mxCell>
        <mxCell id="7HGE-dyt3ShhVV6eNgTS-31" value="Complex Formats Handling" style="rounded=1;whiteSpace=wrap;html=1;fontSize=12;glass=0;strokeWidth=1;shadow=0;fillColor=#fff2cc;strokeColor=#d6b656;" parent="7HGE-dyt3ShhVV6eNgTS-14" vertex="1">
          <mxGeometry x="161" y="120" width="120" height="40" as="geometry" />
        </mxCell>
        <mxCell id="7HGE-dyt3ShhVV6eNgTS-57" style="edgeStyle=orthogonalEdgeStyle;rounded=0;orthogonalLoop=1;jettySize=auto;html=1;exitX=1;exitY=0.5;exitDx=0;exitDy=0;entryX=0;entryY=0.5;entryDx=0;entryDy=0;" parent="WIyWlLk6GJQsqaUBKTNV-1" source="7HGE-dyt3ShhVV6eNgTS-19" target="7HGE-dyt3ShhVV6eNgTS-4" edge="1">
          <mxGeometry relative="1" as="geometry" />
        </mxCell>
        <mxCell id="7HGE-dyt3ShhVV6eNgTS-19" value="&lt;div&gt;User Input processing&lt;/div&gt;" style="swimlane;horizontal=0;whiteSpace=wrap;html=1;fillColor=#d5e8d4;strokeColor=#82b366;" parent="WIyWlLk6GJQsqaUBKTNV-1" vertex="1">
          <mxGeometry x="40" y="360" width="200" height="280" as="geometry" />
        </mxCell>
        <mxCell id="WIyWlLk6GJQsqaUBKTNV-3" value="User Authentication" style="rounded=1;whiteSpace=wrap;html=1;fontSize=12;glass=0;strokeWidth=1;shadow=0;" parent="7HGE-dyt3ShhVV6eNgTS-19" vertex="1">
          <mxGeometry x="40" y="20" width="120" height="40" as="geometry" />
        </mxCell>
        <mxCell id="WIyWlLk6GJQsqaUBKTNV-7" value="Query Rewriter" style="rounded=1;whiteSpace=wrap;html=1;fontSize=12;glass=0;strokeWidth=1;shadow=0;fillColor=#e1d5e7;strokeColor=#9673a6;" parent="7HGE-dyt3ShhVV6eNgTS-19" vertex="1">
          <mxGeometry x="40" y="80" width="120" height="40" as="geometry" />
        </mxCell>
        <mxCell id="7HGE-dyt3ShhVV6eNgTS-8" value="Input Guardrail" style="rounded=1;whiteSpace=wrap;html=1;fontSize=12;glass=0;strokeWidth=1;shadow=0;fillColor=#f8cecc;strokeColor=#b85450;" parent="7HGE-dyt3ShhVV6eNgTS-19" vertex="1">
          <mxGeometry x="40" y="140" width="120" height="40" as="geometry" />
        </mxCell>
        <mxCell id="7HGE-dyt3ShhVV6eNgTS-5" value="chat history&amp;nbsp; " style="strokeWidth=2;html=1;shape=mxgraph.flowchart.multi-document;whiteSpace=wrap;fillColor=#ffe6cc;strokeColor=#d79b00;" parent="7HGE-dyt3ShhVV6eNgTS-19" vertex="1">
          <mxGeometry x="56" y="210" width="88" height="60" as="geometry" />
        </mxCell>
        <mxCell id="7HGE-dyt3ShhVV6eNgTS-60" style="edgeStyle=orthogonalEdgeStyle;rounded=0;orthogonalLoop=1;jettySize=auto;html=1;exitX=1;exitY=0;exitDx=0;exitDy=0;entryX=1;entryY=1;entryDx=0;entryDy=0;" parent="WIyWlLk6GJQsqaUBKTNV-1" source="7HGE-dyt3ShhVV6eNgTS-22" target="7HGE-dyt3ShhVV6eNgTS-44" edge="1">
          <mxGeometry relative="1" as="geometry">
            <mxPoint x="790" y="280" as="targetPoint" />
          </mxGeometry>
        </mxCell>
        <mxCell id="7HGE-dyt3ShhVV6eNgTS-22" value="Information Processing and Generation" style="swimlane;horizontal=0;whiteSpace=wrap;html=1;fillColor=#fff2cc;strokeColor=#d6b656;" parent="WIyWlLk6GJQsqaUBKTNV-1" vertex="1">
          <mxGeometry x="600" y="360" width="200" height="280" as="geometry" />
        </mxCell>
        <mxCell id="7HGE-dyt3ShhVV6eNgTS-9" value="Response Generation" style="rounded=1;whiteSpace=wrap;html=1;absoluteArcSize=1;arcSize=14;strokeWidth=2;fillColor=#e1d5e7;strokeColor=#9673a6;" parent="7HGE-dyt3ShhVV6eNgTS-22" vertex="1">
          <mxGeometry x="40" y="20" width="120" height="40" as="geometry" />
        </mxCell>
        <mxCell id="7HGE-dyt3ShhVV6eNgTS-28" value="Output Guardrails and Moderation" style="rounded=1;whiteSpace=wrap;html=1;absoluteArcSize=1;arcSize=14;strokeWidth=2;fillColor=#f8cecc;strokeColor=#b85450;" parent="7HGE-dyt3ShhVV6eNgTS-22" vertex="1">
          <mxGeometry x="40" y="80" width="120" height="40" as="geometry" />
        </mxCell>
        <mxCell id="7HGE-dyt3ShhVV6eNgTS-29" value="Caching" style="strokeWidth=2;html=1;shape=mxgraph.flowchart.multi-document;whiteSpace=wrap;fillColor=#ffe6cc;strokeColor=#d79b00;" parent="7HGE-dyt3ShhVV6eNgTS-22" vertex="1">
          <mxGeometry x="56" y="140" width="88" height="60" as="geometry" />
        </mxCell>
        <mxCell id="7HGE-dyt3ShhVV6eNgTS-30" value="Personalization and Customization" style="rounded=1;whiteSpace=wrap;html=1;fontSize=12;glass=0;strokeWidth=1;shadow=0;" parent="7HGE-dyt3ShhVV6eNgTS-22" vertex="1">
          <mxGeometry x="40" y="215" width="120" height="40" as="geometry" />
        </mxCell>
        <mxCell id="7HGE-dyt3ShhVV6eNgTS-61" style="edgeStyle=orthogonalEdgeStyle;rounded=0;orthogonalLoop=1;jettySize=auto;html=1;exitX=0;exitY=0;exitDx=0;exitDy=0;entryX=1;entryY=0;entryDx=0;entryDy=0;dashed=1;" parent="WIyWlLk6GJQsqaUBKTNV-1" source="7HGE-dyt3ShhVV6eNgTS-44" target="7HGE-dyt3ShhVV6eNgTS-14" edge="1">
          <mxGeometry relative="1" as="geometry">
            <Array as="points">
              <mxPoint x="440" y="40" />
              <mxPoint x="440" y="40" />
            </Array>
          </mxGeometry>
        </mxCell>
        <mxCell id="7HGE-dyt3ShhVV6eNgTS-44" value="Feedback and Continuous Improvement" style="swimlane;whiteSpace=wrap;html=1;startSize=23;" parent="WIyWlLk6GJQsqaUBKTNV-1" vertex="1">
          <mxGeometry x="480" y="40" width="320" height="240" as="geometry" />
        </mxCell>
        <mxCell id="7HGE-dyt3ShhVV6eNgTS-46" value="Data Refinement" style="rounded=1;whiteSpace=wrap;html=1;fontSize=12;glass=0;strokeWidth=1;shadow=0;fillColor=#e1d5e7;strokeColor=#9673a6;" parent="7HGE-dyt3ShhVV6eNgTS-44" vertex="1">
          <mxGeometry x="170" y="50" width="120" height="40" as="geometry" />
        </mxCell>
        <mxCell id="7HGE-dyt3ShhVV6eNgTS-47" value="System Monitoring" style="rounded=1;whiteSpace=wrap;html=1;fontSize=12;glass=0;strokeWidth=1;shadow=0;fillColor=#fff2cc;strokeColor=#d6b656;" parent="7HGE-dyt3ShhVV6eNgTS-44" vertex="1">
          <mxGeometry x="170" y="120" width="120" height="40" as="geometry" />
        </mxCell>
        <mxCell id="7HGE-dyt3ShhVV6eNgTS-48" value="Generation Evaluation" style="rounded=1;whiteSpace=wrap;html=1;fontSize=12;glass=0;strokeWidth=1;shadow=0;fillColor=#fff2cc;strokeColor=#d6b656;" parent="7HGE-dyt3ShhVV6eNgTS-44" vertex="1">
          <mxGeometry x="20" y="120" width="120" height="40" as="geometry" />
        </mxCell>
        <mxCell id="7HGE-dyt3ShhVV6eNgTS-49" value="User Feedback" style="rounded=1;whiteSpace=wrap;html=1;fontSize=12;glass=0;strokeWidth=1;shadow=0;" parent="7HGE-dyt3ShhVV6eNgTS-44" vertex="1">
          <mxGeometry x="20" y="50" width="120" height="40" as="geometry" />
        </mxCell>
        <mxCell id="CfjPV-ttVsPRGbtM61f5-0" value="" style="sketch=0;pointerEvents=1;shadow=0;dashed=0;html=1;strokeColor=#6c8ebf;fillColor=#dae8fc;labelPosition=center;verticalLabelPosition=bottom;verticalAlign=top;outlineConnect=0;align=center;shape=mxgraph.office.concepts.website;" vertex="1" parent="WIyWlLk6GJQsqaUBKTNV-1">
          <mxGeometry x="71" y="790" width="59" height="49" as="geometry" />
        </mxCell>
        <mxCell id="CfjPV-ttVsPRGbtM61f5-1" value="" style="points=[[0.35,0,0],[0.98,0.51,0],[1,0.71,0],[0.67,1,0],[0,0.795,0],[0,0.65,0]];verticalLabelPosition=bottom;sketch=0;html=1;verticalAlign=top;aspect=fixed;align=center;pointerEvents=1;shape=mxgraph.cisco19.user;fillColor=#005073;strokeColor=none;" vertex="1" parent="WIyWlLk6GJQsqaUBKTNV-1">
          <mxGeometry x="75.5" y="1025" width="50" height="50" as="geometry" />
        </mxCell>
        <mxCell id="CfjPV-ttVsPRGbtM61f5-2" value="Chat History" style="rounded=1;whiteSpace=wrap;html=1;fillColor=#dae8fc;strokeColor=#6c8ebf;" vertex="1" parent="WIyWlLk6GJQsqaUBKTNV-1">
          <mxGeometry x="327.5" y="910" width="73" height="40" as="geometry" />
        </mxCell>
        <mxCell id="CfjPV-ttVsPRGbtM61f5-3" value="" style="sketch=0;outlineConnect=0;fillColor=#e1d5e7;strokeColor=#9673a6;dashed=0;verticalLabelPosition=bottom;verticalAlign=top;align=center;html=1;fontSize=12;fontStyle=0;aspect=fixed;pointerEvents=1;shape=mxgraph.aws4.documents;" vertex="1" parent="WIyWlLk6GJQsqaUBKTNV-1">
          <mxGeometry x="216" y="784.03" width="50" height="60.94" as="geometry" />
        </mxCell>
        <mxCell id="CfjPV-ttVsPRGbtM61f5-4" value="" style="sketch=0;outlineConnect=0;fillColor=#e1d5e7;strokeColor=#9673a6;dashed=0;verticalLabelPosition=bottom;verticalAlign=top;align=center;html=1;fontSize=12;fontStyle=0;aspect=fixed;pointerEvents=1;shape=mxgraph.aws4.search_documents;" vertex="1" parent="WIyWlLk6GJQsqaUBKTNV-1">
          <mxGeometry x="340.9" y="788" width="46.2" height="53" as="geometry" />
        </mxCell>
        <mxCell id="CfjPV-ttVsPRGbtM61f5-5" value="Vector-store" style="shape=cylinder3;whiteSpace=wrap;html=1;boundedLbl=1;backgroundOutline=1;size=15;fillColor=#fff2cc;strokeColor=#d6b656;" vertex="1" parent="WIyWlLk6GJQsqaUBKTNV-1">
          <mxGeometry x="491" y="890" width="60" height="80" as="geometry" />
        </mxCell>
        <mxCell id="CfjPV-ttVsPRGbtM61f5-6" value="" style="editableCssRules=.*;html=1;shape=image;verticalLabelPosition=bottom;labelBackgroundColor=#ffffff;verticalAlign=top;aspect=fixed;imageAspect=0;image=data:image/svg+xml,PHN2ZyB4bWxucz0iaHR0cDovL3d3dy53My5vcmcvMjAwMC9zdmciIHhtbG5zOnY9Imh0dHBzOi8vdmVjdGEuaW8vbmFubyIgd2lkdGg9IjIwIiBoZWlnaHQ9IjE3LjUiIGZpbGwtcnVsZT0iZXZlbm9kZCIgdmlld0JveD0iMCAwIDIwIDE3LjUiPiYjeGE7CTxzdHlsZSB0eXBlPSJ0ZXh0L2NzcyI+JiN4YTsJLnN0MHtmaWxsOiM0Mjg1ZjQ7fSYjeGE7CS5zdDF7ZmlsbDojNjY5ZGY2O30mI3hhOwk8L3N0eWxlPiYjeGE7CTxwYXRoIGNsYXNzPSJzdDAiIGQ9Ik0xOC45MSAxMC42M0wyMCA4Ljc1IDE3LjgyIDVoLTMuMDdsLTEuMDYtMS44NkgxMi41VjEuODhoMS45NGwxLjA2IDEuODdoMS41OUwxNC45IDBoLTQuMjd2NWgxLjczbC43MyAxLjI1aC0yLjQ2djIuNWgyLjI2bDEuMDUtMS44N2gyLjgxbC43MiAxLjI1aC0yLjhMMTMuNjIgMTBoLTIuOTl2NC4zOGgzLjRsLS43MiAxLjI1aC0yLjY4djEuODdoNC4yN2wzLjI4LTUuNjJoLTIuMDlsLS43MyAxLjI1SDEyLjV2LTEuMjVoMi4xNGwuNzQtMS4yNXoiLz4mI3hhOwk8cGF0aCBjbGFzcz0ic3QxIiBkPSJNMS4wOSAxMC42M0wwIDguNzUgMi4xOCA1aDMuMDdsMS4wNi0xLjg2SDcuNVYxLjg4SDUuNTZMNC41IDMuNzVIMi45MUw1LjEgMGg0LjI4djVINy42NGwtLjczIDEuMjVoMi40N3YyLjVINy4xMUw2LjA2IDYuODhIMy4yNWwtLjcyIDEuMjVoMi44TDYuMzggMTBoM3Y0LjM4SDUuOTdsLjcyIDEuMjVoMi42OXYxLjg3SDUuMWwtMy4yOC01LjYyaDIuMDlsLjczIDEuMjVINy41di0xLjI1SDUuMzZsLS43NC0xLjI1eiIvPiYjeGE7PC9zdmc+;" vertex="1" parent="WIyWlLk6GJQsqaUBKTNV-1">
          <mxGeometry x="640" y="1150" width="60" height="54" as="geometry" />
        </mxCell>
        <mxCell id="CfjPV-ttVsPRGbtM61f5-7" value="" style="sketch=0;points=[[0,0,0],[0.25,0,0],[0.5,0,0],[0.75,0,0],[1,0,0],[0,1,0],[0.25,1,0],[0.5,1,0],[0.75,1,0],[1,1,0],[0,0.25,0],[0,0.5,0],[0,0.75,0],[1,0.25,0],[1,0.5,0],[1,0.75,0]];outlineConnect=0;fillColor=#e1d5e7;strokeColor=#9673a6;dashed=0;verticalLabelPosition=bottom;verticalAlign=top;align=center;html=1;fontSize=12;fontStyle=0;aspect=fixed;shape=mxgraph.aws4.resourceIcon;resIcon=mxgraph.aws4.augmented_ai;" vertex="1" parent="WIyWlLk6GJQsqaUBKTNV-1">
          <mxGeometry x="337" y="1033" width="54" height="54" as="geometry" />
        </mxCell>
        <mxCell id="CfjPV-ttVsPRGbtM61f5-8" value="Query" style="ellipse;whiteSpace=wrap;html=1;aspect=fixed;direction=south;fillColor=#d5e8d4;strokeColor=#82b366;" vertex="1" parent="WIyWlLk6GJQsqaUBKTNV-1">
          <mxGeometry x="211" y="1030" width="60" height="60" as="geometry" />
        </mxCell>
        <mxCell id="CfjPV-ttVsPRGbtM61f5-9" value="" style="endArrow=classic;html=1;rounded=0;" edge="1" parent="WIyWlLk6GJQsqaUBKTNV-1" source="CfjPV-ttVsPRGbtM61f5-0" target="CfjPV-ttVsPRGbtM61f5-3">
          <mxGeometry width="50" height="50" relative="1" as="geometry">
            <mxPoint x="131" y="970" as="sourcePoint" />
            <mxPoint x="181" y="920" as="targetPoint" />
          </mxGeometry>
        </mxCell>
        <mxCell id="CfjPV-ttVsPRGbtM61f5-10" value="" style="endArrow=classic;html=1;rounded=0;" edge="1" parent="WIyWlLk6GJQsqaUBKTNV-1" source="CfjPV-ttVsPRGbtM61f5-3" target="CfjPV-ttVsPRGbtM61f5-4">
          <mxGeometry width="50" height="50" relative="1" as="geometry">
            <mxPoint x="140" y="825" as="sourcePoint" />
            <mxPoint x="301" y="900" as="targetPoint" />
          </mxGeometry>
        </mxCell>
        <mxCell id="CfjPV-ttVsPRGbtM61f5-11" value="" style="endArrow=classic;html=1;rounded=0;entryX=0.5;entryY=0;entryDx=0;entryDy=0;entryPerimeter=0;" edge="1" parent="WIyWlLk6GJQsqaUBKTNV-1" source="CfjPV-ttVsPRGbtM61f5-4" target="CfjPV-ttVsPRGbtM61f5-5">
          <mxGeometry width="50" height="50" relative="1" as="geometry">
            <mxPoint x="288" y="825" as="sourcePoint" />
            <mxPoint x="371" y="825" as="targetPoint" />
            <Array as="points">
              <mxPoint x="521" y="815" />
            </Array>
          </mxGeometry>
        </mxCell>
        <mxCell id="CfjPV-ttVsPRGbtM61f5-12" value="HTML Docs" style="text;html=1;strokeColor=none;fillColor=none;align=center;verticalAlign=middle;whiteSpace=wrap;rounded=0;" vertex="1" parent="WIyWlLk6GJQsqaUBKTNV-1">
          <mxGeometry x="70" y="750" width="60" height="30" as="geometry" />
        </mxCell>
        <mxCell id="CfjPV-ttVsPRGbtM61f5-13" value="Chunks" style="text;html=1;strokeColor=none;fillColor=none;align=center;verticalAlign=middle;whiteSpace=wrap;rounded=0;" vertex="1" parent="WIyWlLk6GJQsqaUBKTNV-1">
          <mxGeometry x="206" y="750" width="60" height="30" as="geometry" />
        </mxCell>
        <mxCell id="CfjPV-ttVsPRGbtM61f5-14" value="Embeddings" style="text;html=1;strokeColor=none;fillColor=none;align=center;verticalAlign=middle;whiteSpace=wrap;rounded=0;" vertex="1" parent="WIyWlLk6GJQsqaUBKTNV-1">
          <mxGeometry x="334" y="750" width="60" height="30" as="geometry" />
        </mxCell>
        <mxCell id="CfjPV-ttVsPRGbtM61f5-15" value="" style="endArrow=classic;html=1;rounded=0;entryX=0;entryY=0;entryDx=0;entryDy=0;" edge="1" parent="WIyWlLk6GJQsqaUBKTNV-1" source="CfjPV-ttVsPRGbtM61f5-2" target="CfjPV-ttVsPRGbtM61f5-22">
          <mxGeometry width="50" height="50" relative="1" as="geometry">
            <mxPoint x="241" y="1050" as="sourcePoint" />
            <mxPoint x="241" y="1020" as="targetPoint" />
          </mxGeometry>
        </mxCell>
        <mxCell id="CfjPV-ttVsPRGbtM61f5-16" value="" style="endArrow=classic;html=1;rounded=0;exitX=1;exitY=0.71;exitDx=0;exitDy=0;exitPerimeter=0;" edge="1" parent="WIyWlLk6GJQsqaUBKTNV-1" source="CfjPV-ttVsPRGbtM61f5-1" target="CfjPV-ttVsPRGbtM61f5-8">
          <mxGeometry width="50" height="50" relative="1" as="geometry">
            <mxPoint x="131" y="1135" as="sourcePoint" />
            <mxPoint x="251" y="1105" as="targetPoint" />
          </mxGeometry>
        </mxCell>
        <mxCell id="CfjPV-ttVsPRGbtM61f5-17" value="" style="endArrow=classic;html=1;rounded=0;entryX=0;entryY=0.5;entryDx=0;entryDy=0;entryPerimeter=0;" edge="1" parent="WIyWlLk6GJQsqaUBKTNV-1" source="CfjPV-ttVsPRGbtM61f5-8" target="CfjPV-ttVsPRGbtM61f5-7">
          <mxGeometry width="50" height="50" relative="1" as="geometry">
            <mxPoint x="301" y="1060.5" as="sourcePoint" />
            <mxPoint x="376" y="1059.5" as="targetPoint" />
          </mxGeometry>
        </mxCell>
        <mxCell id="CfjPV-ttVsPRGbtM61f5-18" value="Query + Context" style="ellipse;whiteSpace=wrap;html=1;aspect=fixed;direction=south;fillColor=#d5e8d4;strokeColor=#82b366;" vertex="1" parent="WIyWlLk6GJQsqaUBKTNV-1">
          <mxGeometry x="641" y="1030" width="60" height="60" as="geometry" />
        </mxCell>
        <mxCell id="CfjPV-ttVsPRGbtM61f5-19" value="" style="endArrow=classic;html=1;rounded=0;entryX=0;entryY=0.5;entryDx=0;entryDy=0;exitX=1;exitY=0.5;exitDx=0;exitDy=0;exitPerimeter=0;" edge="1" parent="WIyWlLk6GJQsqaUBKTNV-1" source="CfjPV-ttVsPRGbtM61f5-7" target="CfjPV-ttVsPRGbtM61f5-22">
          <mxGeometry width="50" height="50" relative="1" as="geometry">
            <mxPoint x="281" y="1070" as="sourcePoint" />
            <mxPoint x="401" y="1070" as="targetPoint" />
          </mxGeometry>
        </mxCell>
        <mxCell id="CfjPV-ttVsPRGbtM61f5-20" value="" style="endArrow=classic;html=1;rounded=0;entryX=0.5;entryY=0;entryDx=0;entryDy=0;exitX=1;exitY=0.5;exitDx=0;exitDy=0;" edge="1" parent="WIyWlLk6GJQsqaUBKTNV-1" source="CfjPV-ttVsPRGbtM61f5-18" target="CfjPV-ttVsPRGbtM61f5-6">
          <mxGeometry width="50" height="50" relative="1" as="geometry">
            <mxPoint x="291" y="1080" as="sourcePoint" />
            <mxPoint x="411" y="1080" as="targetPoint" />
          </mxGeometry>
        </mxCell>
        <mxCell id="CfjPV-ttVsPRGbtM61f5-21" value="" style="endArrow=classic;html=1;rounded=0;exitX=0.5;exitY=0;exitDx=0;exitDy=0;" edge="1" parent="WIyWlLk6GJQsqaUBKTNV-1" source="CfjPV-ttVsPRGbtM61f5-22" target="CfjPV-ttVsPRGbtM61f5-5">
          <mxGeometry width="50" height="50" relative="1" as="geometry">
            <mxPoint x="301" y="1090" as="sourcePoint" />
            <mxPoint x="421" y="1090" as="targetPoint" />
          </mxGeometry>
        </mxCell>
        <mxCell id="CfjPV-ttVsPRGbtM61f5-22" value="QA Chain" style="rounded=1;whiteSpace=wrap;html=1;fillColor=#f8cecc;strokeColor=#b85450;" vertex="1" parent="WIyWlLk6GJQsqaUBKTNV-1">
          <mxGeometry x="484.5" y="1040" width="73" height="40" as="geometry" />
        </mxCell>
        <mxCell id="CfjPV-ttVsPRGbtM61f5-23" value="" style="endArrow=classic;html=1;rounded=0;entryX=0.5;entryY=1;entryDx=0;entryDy=0;exitX=1;exitY=0.5;exitDx=0;exitDy=0;" edge="1" parent="WIyWlLk6GJQsqaUBKTNV-1" source="CfjPV-ttVsPRGbtM61f5-22" target="CfjPV-ttVsPRGbtM61f5-18">
          <mxGeometry width="50" height="50" relative="1" as="geometry">
            <mxPoint x="401" y="1070" as="sourcePoint" />
            <mxPoint x="495" y="1070" as="targetPoint" />
          </mxGeometry>
        </mxCell>
        <mxCell id="CfjPV-ttVsPRGbtM61f5-24" value="Prompt Template" style="text;html=1;strokeColor=none;fillColor=none;align=center;verticalAlign=middle;whiteSpace=wrap;rounded=0;" vertex="1" parent="WIyWlLk6GJQsqaUBKTNV-1">
          <mxGeometry x="334" y="1087" width="60" height="30" as="geometry" />
        </mxCell>
        <mxCell id="CfjPV-ttVsPRGbtM61f5-25" value="Buffer Memory" style="text;html=1;strokeColor=none;fillColor=none;align=center;verticalAlign=middle;whiteSpace=wrap;rounded=0;" vertex="1" parent="WIyWlLk6GJQsqaUBKTNV-1">
          <mxGeometry x="334" y="952" width="60" height="30" as="geometry" />
        </mxCell>
        <mxCell id="CfjPV-ttVsPRGbtM61f5-26" value="Embeddings" style="text;html=1;strokeColor=none;fillColor=none;align=center;verticalAlign=middle;whiteSpace=wrap;rounded=0;" vertex="1" parent="WIyWlLk6GJQsqaUBKTNV-1">
          <mxGeometry x="334" y="1000" width="60" height="30" as="geometry" />
        </mxCell>
        <mxCell id="CfjPV-ttVsPRGbtM61f5-27" value="Mistral 7B" style="text;html=1;strokeColor=none;fillColor=none;align=center;verticalAlign=middle;whiteSpace=wrap;rounded=0;" vertex="1" parent="WIyWlLk6GJQsqaUBKTNV-1">
          <mxGeometry x="640" y="1204" width="60" height="30" as="geometry" />
        </mxCell>
        <mxCell id="CfjPV-ttVsPRGbtM61f5-28" value="" style="endArrow=classic;html=1;rounded=0;entryX=0.51;entryY=0.98;entryDx=0;entryDy=0;exitX=0;exitY=0.5;exitDx=0;exitDy=0;entryPerimeter=0;" edge="1" parent="WIyWlLk6GJQsqaUBKTNV-1" source="CfjPV-ttVsPRGbtM61f5-6" target="CfjPV-ttVsPRGbtM61f5-1">
          <mxGeometry width="50" height="50" relative="1" as="geometry">
            <mxPoint x="681" y="1100" as="sourcePoint" />
            <mxPoint x="680" y="1160" as="targetPoint" />
            <Array as="points">
              <mxPoint x="101" y="1177" />
            </Array>
          </mxGeometry>
        </mxCell>
        <mxCell id="CfjPV-ttVsPRGbtM61f5-29" value="Response" style="ellipse;whiteSpace=wrap;html=1;aspect=fixed;direction=south;fillColor=#d5e8d4;strokeColor=#82b366;" vertex="1" parent="WIyWlLk6GJQsqaUBKTNV-1">
          <mxGeometry x="206" y="1150" width="60" height="60" as="geometry" />
        </mxCell>
        <mxCell id="CfjPV-ttVsPRGbtM61f5-30" value="" style="points=[[0.35,0,0],[0.98,0.51,0],[1,0.71,0],[0.67,1,0],[0,0.795,0],[0,0.65,0]];verticalLabelPosition=bottom;sketch=0;html=1;verticalAlign=top;aspect=fixed;align=center;pointerEvents=1;shape=mxgraph.cisco19.user;fillColor=#005073;strokeColor=none;" vertex="1" parent="WIyWlLk6GJQsqaUBKTNV-1">
          <mxGeometry x="420" y="1310" width="50" height="50" as="geometry" />
        </mxCell>
        <mxCell id="CfjPV-ttVsPRGbtM61f5-31" value="coordinator" style="ellipse;whiteSpace=wrap;html=1;" vertex="1" parent="WIyWlLk6GJQsqaUBKTNV-1">
          <mxGeometry x="385" y="1520" width="120" height="80" as="geometry" />
        </mxCell>
        <mxCell id="CfjPV-ttVsPRGbtM61f5-32" value="Input Guardrail" style="rounded=1;whiteSpace=wrap;html=1;fontSize=12;glass=0;strokeWidth=1;shadow=0;fillColor=#f8cecc;strokeColor=#b85450;" vertex="1" parent="WIyWlLk6GJQsqaUBKTNV-1">
          <mxGeometry x="385" y="1450" width="120" height="40" as="geometry" />
        </mxCell>
        <mxCell id="CfjPV-ttVsPRGbtM61f5-33" value="Query Rewriter" style="rounded=1;whiteSpace=wrap;html=1;fontSize=12;glass=0;strokeWidth=1;shadow=0;fillColor=#e1d5e7;strokeColor=#9673a6;" vertex="1" parent="WIyWlLk6GJQsqaUBKTNV-1">
          <mxGeometry x="600" y="1430" width="120" height="40" as="geometry" />
        </mxCell>
        <mxCell id="CfjPV-ttVsPRGbtM61f5-34" value="chat history&amp;nbsp; " style="strokeWidth=2;html=1;shape=mxgraph.flowchart.multi-document;whiteSpace=wrap;fillColor=#ffe6cc;strokeColor=#d79b00;" vertex="1" parent="WIyWlLk6GJQsqaUBKTNV-1">
          <mxGeometry x="96" y="1610" width="88" height="60" as="geometry" />
        </mxCell>
        <mxCell id="CfjPV-ttVsPRGbtM61f5-35" value="PII Filter" style="rounded=1;whiteSpace=wrap;html=1;fontSize=12;glass=0;strokeWidth=1;shadow=0;fillColor=#f8cecc;strokeColor=#b85450;" vertex="1" parent="WIyWlLk6GJQsqaUBKTNV-1">
          <mxGeometry x="385" y="1390" width="120" height="40" as="geometry" />
        </mxCell>
        <mxCell id="CfjPV-ttVsPRGbtM61f5-36" value="Query" style="ellipse;whiteSpace=wrap;html=1;aspect=fixed;direction=south;fillColor=#d5e8d4;strokeColor=#82b366;" vertex="1" parent="WIyWlLk6GJQsqaUBKTNV-1">
          <mxGeometry x="630" y="1840" width="60" height="60" as="geometry" />
        </mxCell>
        <mxCell id="CfjPV-ttVsPRGbtM61f5-37" value="" style="sketch=0;points=[[0,0,0],[0.25,0,0],[0.5,0,0],[0.75,0,0],[1,0,0],[0,1,0],[0.25,1,0],[0.5,1,0],[0.75,1,0],[1,1,0],[0,0.25,0],[0,0.5,0],[0,0.75,0],[1,0.25,0],[1,0.5,0],[1,0.75,0]];outlineConnect=0;fillColor=#e1d5e7;strokeColor=#9673a6;dashed=0;verticalLabelPosition=bottom;verticalAlign=top;align=center;html=1;fontSize=12;fontStyle=0;aspect=fixed;shape=mxgraph.aws4.resourceIcon;resIcon=mxgraph.aws4.augmented_ai;" vertex="1" parent="WIyWlLk6GJQsqaUBKTNV-1">
          <mxGeometry x="503.5" y="1680" width="54" height="54" as="geometry" />
        </mxCell>
        <mxCell id="CfjPV-ttVsPRGbtM61f5-38" value="" style="sketch=0;points=[[0,0,0],[0.25,0,0],[0.5,0,0],[0.75,0,0],[1,0,0],[0,1,0],[0.25,1,0],[0.5,1,0],[0.75,1,0],[1,1,0],[0,0.25,0],[0,0.5,0],[0,0.75,0],[1,0.25,0],[1,0.5,0],[1,0.75,0]];outlineConnect=0;fillColor=#e1d5e7;strokeColor=#9673a6;dashed=0;verticalLabelPosition=bottom;verticalAlign=top;align=center;html=1;fontSize=12;fontStyle=0;aspect=fixed;shape=mxgraph.aws4.resourceIcon;resIcon=mxgraph.aws4.augmented_ai;" vertex="1" parent="WIyWlLk6GJQsqaUBKTNV-1">
          <mxGeometry x="270" y="1680" width="54" height="54" as="geometry" />
        </mxCell>
        <mxCell id="CfjPV-ttVsPRGbtM61f5-39" value="" style="sketch=0;points=[[0,0,0],[0.25,0,0],[0.5,0,0],[0.75,0,0],[1,0,0],[0,1,0],[0.25,1,0],[0.5,1,0],[0.75,1,0],[1,1,0],[0,0.25,0],[0,0.5,0],[0,0.75,0],[1,0.25,0],[1,0.5,0],[1,0.75,0]];outlineConnect=0;fillColor=#e1d5e7;strokeColor=#9673a6;dashed=0;verticalLabelPosition=bottom;verticalAlign=top;align=center;html=1;fontSize=12;fontStyle=0;aspect=fixed;shape=mxgraph.aws4.resourceIcon;resIcon=mxgraph.aws4.augmented_ai;" vertex="1" parent="WIyWlLk6GJQsqaUBKTNV-1">
          <mxGeometry x="387.1" y="1680" width="54" height="54" as="geometry" />
        </mxCell>
        <mxCell id="CfjPV-ttVsPRGbtM61f5-40" value="Query" style="ellipse;whiteSpace=wrap;html=1;aspect=fixed;direction=south;fillColor=#d5e8d4;strokeColor=#82b366;" vertex="1" parent="WIyWlLk6GJQsqaUBKTNV-1">
          <mxGeometry x="130" y="1840" width="60" height="60" as="geometry" />
        </mxCell>
        <mxCell id="CfjPV-ttVsPRGbtM61f5-41" value="Query" style="ellipse;whiteSpace=wrap;html=1;aspect=fixed;direction=south;fillColor=#d5e8d4;strokeColor=#82b366;" vertex="1" parent="WIyWlLk6GJQsqaUBKTNV-1">
          <mxGeometry x="441.1" y="1840" width="60" height="60" as="geometry" />
        </mxCell>
        <mxCell id="CfjPV-ttVsPRGbtM61f5-42" value="Query" style="ellipse;whiteSpace=wrap;html=1;aspect=fixed;direction=south;fillColor=#d5e8d4;strokeColor=#82b366;" vertex="1" parent="WIyWlLk6GJQsqaUBKTNV-1">
          <mxGeometry x="280.9" y="1840" width="60" height="60" as="geometry" />
        </mxCell>
        <mxCell id="CfjPV-ttVsPRGbtM61f5-43" value="&lt;div&gt;Indicies&lt;/div&gt;" style="strokeWidth=2;html=1;shape=mxgraph.flowchart.database;whiteSpace=wrap;fillColor=#ffe6cc;strokeColor=#d79b00;" vertex="1" parent="WIyWlLk6GJQsqaUBKTNV-1">
          <mxGeometry x="65.5" y="2010" width="60" height="60" as="geometry" />
        </mxCell>
        <mxCell id="CfjPV-ttVsPRGbtM61f5-44" value="User Profiles" style="strokeWidth=2;html=1;shape=mxgraph.flowchart.database;whiteSpace=wrap;fillColor=#ffe6cc;strokeColor=#d79b00;" vertex="1" parent="WIyWlLk6GJQsqaUBKTNV-1">
          <mxGeometry x="110" y="1530" width="60" height="60" as="geometry" />
        </mxCell>
      </root>
    </mxGraphModel>
  </diagram>
</mxfile>
